<svg width="809" height="349" viewBox="0 0 809 349" fill="none" xmlns="http://www.w3.org/2000/svg">
<rect x="1.5" y="24.0266" width="180.424" height="289.843" fill="black" stroke="#E78F0C" stroke-width="3"/>
<path d="M233.37 245.305C229.727 253.806 207.008 262.323 196.701 262.856C186.393 263.389 161.877 253.393 160.978 244.461C156.375 236.376 186.093 258.012 196.401 257.479C206.708 256.946 234.979 241.553 233.37 245.305Z" fill="#C4C4C4"/>
<path d="M159.549 244.083C163.256 235.607 186.037 227.248 196.349 226.787C206.66 226.325 231.101 236.49 231.933 245.428C236.475 253.545 206.919 231.704 196.608 232.165C186.297 232.627 157.912 247.824 159.549 244.083Z" fill="#C4C4C4"/>
<path d="M52.8938 98.3825C59.2824 91.7969 53.85 108.099 60.688 114.252C67.5261 120.405 84.0451 114.078 77.6565 120.664C71.268 127.249 60.5457 127.6 53.7076 121.448C46.8696 115.295 46.5052 104.968 52.8938 98.3825Z" fill="#C4C4C4"/>
<path d="M77.8199 95.1443C83.4223 102.363 67.7208 94.3348 60.225 99.7304C52.7292 105.126 56.2777 121.903 50.6753 114.683C45.073 107.464 46.6079 97.2381 54.1036 91.8425C61.5994 86.4469 72.2175 87.9252 77.8199 95.1443Z" fill="#C4C4C4"/>
<path d="M84.2226 112.637C79.4628 120.397 81.1087 103.35 73.0515 98.7655C64.9944 94.1813 50.2854 103.797 55.0452 96.0368C59.805 88.2771 70.1952 85.7027 78.2523 90.2869C86.3094 94.871 88.9824 104.878 84.2226 112.637Z" fill="#C4C4C4"/>
<path d="M54.6472 118.848C51.9757 110.211 70.0817 120.586 86.9608 115.744C103.84 110.901 113.1 92.6758 115.772 101.313C118.443 109.951 106.926 120.878 90.0465 125.721C73.1675 130.563 57.3186 127.486 54.6472 118.848Z" fill="#C4C4C4"/>
<path d="M167.152 98.9749C169.361 107.733 151.829 96.4797 134.715 100.484C117.601 104.489 107.385 122.235 105.176 113.477C102.967 104.719 115.049 94.3728 132.163 90.3683C149.278 86.3637 164.942 90.217 167.152 98.9749Z" fill="#C4C4C4"/>
<path d="M138.884 118.699C136.511 109.981 147.926 123.106 156.978 120.82C166.03 118.535 169.291 101.705 171.664 110.423C174.037 119.141 168.623 128.061 159.571 130.346C150.519 132.632 141.257 127.417 138.884 118.699Z" fill="#C4C4C4"/>
<path d="M163.245 124.725C154.754 128.514 166.152 115.376 162.218 107.198C158.283 99.0207 140.507 98.9013 148.997 95.1122C157.488 91.3231 167.561 94.8806 171.495 103.058C175.429 111.235 171.736 120.936 163.245 124.725Z" fill="#C4C4C4"/>
<path d="M74.1189 139.029C76.9688 130.445 79.2986 147.418 88.2121 150.163C97.1257 152.908 109.248 140.384 106.398 148.969C103.548 157.553 94.0118 162.287 85.0983 159.543C76.1847 156.798 71.2691 147.614 74.1189 139.029Z" fill="#C4C4C4"/>
<path d="M95.2121 125.835C103.482 130.053 85.7239 129.264 81.3448 137.229C76.9656 145.194 87.6239 158.896 79.3538 154.679C71.0836 150.461 67.9293 140.585 72.3084 132.62C76.6876 124.656 86.9419 121.618 95.2121 125.835Z" fill="#C4C4C4"/>
<path d="M108.768 139.009C107.912 147.984 101.829 131.896 92.51 131.072C83.1912 130.247 74.166 144.998 75.0221 136.023C75.8782 127.048 84.1266 120.441 93.4454 121.266C102.764 122.09 109.625 130.034 108.768 139.009Z" fill="#C4C4C4"/>
<path d="M84.7934 156.807C78.5425 150.1 99.5163 152.019 112.623 140.689C125.729 129.359 126.006 109.07 132.256 115.777C138.507 122.484 132.95 137.106 119.843 148.437C106.737 159.767 91.0443 163.514 84.7934 156.807Z" fill="#C4C4C4"/>
<path d="M177.661 92.4975C183.547 99.5037 162.703 96.554 149.012 107.224C135.321 117.894 133.968 138.142 128.081 131.136C122.195 124.13 128.521 109.801 142.212 99.1311C155.903 88.4613 171.774 85.4914 177.661 92.4975Z" fill="#C4C4C4"/>
<path d="M160.869 121.972C154.852 115.069 170.999 122.231 178.167 116.436C185.334 110.641 180.807 94.0843 186.824 100.987C192.841 107.89 191.908 118.183 184.741 123.978C177.574 129.773 166.886 128.875 160.869 121.972Z" fill="#C4C4C4"/>
<path d="M185.565 117.383C179.573 124.306 184.041 107.734 176.853 101.963C169.665 96.1925 153.543 103.408 159.535 96.4849C165.527 89.5622 176.212 88.6284 183.4 94.3994C190.588 100.17 191.557 110.461 185.565 117.383Z" fill="#C4C4C4"/>
<path d="M80.2267 70.2364C85.7802 62.9824 82.3451 79.7808 89.8771 85.1293C97.4091 90.4779 113.056 82.3512 107.503 89.6052C101.949 96.8592 91.3411 98.4039 83.8091 93.0553C76.2771 87.7068 74.6732 77.4904 80.2267 70.2364Z" fill="#C4C4C4"/>
<path d="M104.596 64.2397C111.028 70.7852 94.4671 64.5623 87.6707 70.7578C80.8743 76.9532 86.4166 93.221 79.9837 86.6755C73.5508 80.1299 73.8455 69.8013 80.6419 63.6058C87.4382 57.4104 98.1627 57.6942 104.596 64.2397Z" fill="#C4C4C4"/>
<path d="M113.059 80.9003C109.265 89.1388 108.849 72.0224 100.295 68.3679C91.7407 64.7135 78.2871 75.9049 82.0816 67.6664C85.8761 59.4279 95.8867 55.7118 104.441 59.3662C112.995 63.0207 116.854 72.6618 113.059 80.9003Z" fill="#C4C4C4"/>
<path d="M84.4297 90.3691C80.7374 82.0877 99.9693 90.3729 116.152 83.6804C132.335 76.9879 139.341 57.8519 143.034 66.1333C146.726 74.4147 136.6 86.5535 120.417 93.2461C104.234 99.9386 88.122 98.6506 84.4297 90.3691Z" fill="#C4C4C4"/>
<path d="M193.787 58.0784C197.035 66.5308 178.268 57.3093 161.751 63.1961C145.233 69.0828 137.22 87.8488 133.973 79.3963C130.725 70.9439 141.482 59.3196 157.999 53.4328C174.516 47.5461 190.539 49.626 193.787 58.0784Z" fill="#C4C4C4"/>
<path d="M168.081 80.8236C164.676 72.4289 177.593 84.1923 186.309 80.9124C195.025 77.6325 196.24 60.5515 199.646 68.9461C203.052 77.3408 198.746 86.8049 190.03 90.0847C181.314 93.3646 171.487 89.2182 168.081 80.8236Z" fill="#C4C4C4"/>
<path d="M193.003 84.0914C185.025 88.8022 194.766 74.4802 189.875 66.7967C184.983 59.1132 167.312 60.9778 175.29 56.267C183.268 51.5562 193.7 53.966 198.592 61.6495C203.483 69.333 200.981 79.3806 193.003 84.0914Z" fill="#C4C4C4"/>
<path d="M171.764 168.027C170.102 173.741 156.219 180.866 149.656 181.964C143.094 183.062 126.594 178.457 125.311 172.8C121.722 167.957 142.476 179.639 149.039 178.541C155.601 177.443 172.497 165.504 171.764 168.027Z" fill="#C4C4C4"/>
<path d="M173.61 191.221C170.3 193.452 169.456 201.552 169.456 207.421C169.456 214.091 169.456 227.042 179.116 221.707C174.329 218.743 172.509 211.194 171.789 207.045C171.07 202.896 175.071 190.236 173.61 191.221Z" fill="#C4C4C4"/>
<rect x="185.617" y="21.0266" width="172.883" height="295.843" fill="white" stroke="black" stroke-width="3"/>
<path d="M209.275 84.6528H224.048" stroke="#6A3D72" stroke-width="6" stroke-linecap="round"/>
<path d="M224.375 83.8938L234.877 49.7945" stroke="#6A3D72" stroke-width="6" stroke-linecap="round"/>
<path d="M226.658 49.8062L233.857 66.3035" stroke="#6A3D72" stroke-width="6" stroke-linecap="round"/>
<path d="M246.207 71.135L254.823 71.2303L263.44 71.3256" stroke="#6A3D72" stroke-width="6" stroke-linecap="round"/>
<ellipse cx="269.596" cy="71.135" rx="6.15517" ry="5.92799" fill="#6A3D72"/>
<ellipse rx="4.7496" ry="4.91718" transform="matrix(-0.204622 0.978841 -0.981716 -0.190353 190.454 264.045)" fill="#6A3D72"/>
<path d="M205.583 102.567L219.405 107.588" stroke="#E78F0C" stroke-width="6" stroke-linecap="round"/>
<path d="M219.989 106.988L242.309 78.6511" stroke="#E78F0C" stroke-width="6" stroke-linecap="round"/>
<path d="M243.695 79.1541L244.822 100.467" stroke="#E78F0C" stroke-width="6" stroke-linecap="round"/>
<path d="M245.091 102.469L253.118 105.486L261.146 108.504" stroke="#E78F0C" stroke-width="6" stroke-linecap="round"/>
<ellipse rx="6.12734" ry="5.95675" transform="matrix(0.939926 0.341378 -0.364613 0.931159 266.448 110.785)" fill="#E78F0C"/>
<path d="M253.805 68.5642L258.659 82.0015" stroke="#0BC28C" stroke-width="6" stroke-linecap="round"/>
<path d="M259.511 82.0486L296.403 80.3985" stroke="#0BC28C" stroke-width="6" stroke-linecap="round"/>
<path d="M296.889 81.7456L280.62 96.2343" stroke="#0BC28C" stroke-width="6" stroke-linecap="round"/>
<path d="M279.197 97.7153L281.934 105.585L284.672 113.454" stroke="#0BC28C" stroke-width="6" stroke-linecap="round"/>
<ellipse rx="5.95293" ry="6.13105" transform="matrix(0.339724 0.940525 -0.948198 0.31768 287.281 118.993)" fill="#0BC28C"/>
<path d="M210.612 115.929L223.672 122.578" stroke="#51870C" stroke-width="6" stroke-linecap="round"/>
<path d="M224.33 122.054L250.161 96.634" stroke="#51870C" stroke-width="6" stroke-linecap="round"/>
<path d="M251.47 97.3003L249.816 118.581" stroke="#51870C" stroke-width="6" stroke-linecap="round"/>
<path d="M249.822 120.6L257.394 124.562L264.965 128.525" stroke="#51870C" stroke-width="6" stroke-linecap="round"/>
<ellipse rx="6.10628" ry="5.97834" transform="matrix(0.89117 0.453669 -0.481136 0.876646 269.297 132.499)" fill="#51870C"/>
<path d="M241.283 131.019L251.084 141.663" stroke="#0BC28C" stroke-width="6" stroke-linecap="round"/>
<path d="M251.891 141.395L285.349 126.338" stroke="#0BC28C" stroke-width="6" stroke-linecap="round"/>
<path d="M286.332 127.405L277.018 146.769" stroke="#0BC28C" stroke-width="6" stroke-linecap="round"/>
<path d="M276.288 148.66L281.931 154.932L287.574 161.204" stroke="#0BC28C" stroke-width="6" stroke-linecap="round"/>
<ellipse rx="6.02906" ry="6.05621" transform="matrix(0.677385 0.735628 -0.760396 0.649459 291.827 164.868)" fill="#0BC28C"/>
<path d="M194.505 176.312L202.902 176.32" stroke="#E78F0C" stroke-width="6" stroke-linecap="round"/>
<path d="M203.088 175.888L209.076 156.512" stroke="#E78F0C" stroke-width="6" stroke-linecap="round"/>
<path d="M209.918 156.513L214.945 167.635" stroke="#E78F0C" stroke-width="6" stroke-linecap="round"/>
<path d="M215.504 168.647L220.401 168.706L225.299 168.765" stroke="#E78F0C" stroke-width="6" stroke-linecap="round"/>
<ellipse rx="4.92414" ry="4.74239" transform="matrix(1 0.000906878 -0.000977719 0.999999 228.977 168.36)" fill="#E78F0C"/>
<path d="M190.907 252.533L190.859 257.25L190.81 261.967" stroke="#6A3D72" stroke-width="6" stroke-linecap="round"/>
<path d="M195.27 228.894L193.613 236.821" stroke="#6A3D72" stroke-width="6" stroke-linecap="round"/>
<path d="M194.016 237.082L212.566 246.543" stroke="#6A3D72" stroke-width="6" stroke-linecap="round"/>
<path d="M189.579 244.389L195.732 244.234" stroke="#6A3D72" stroke-width="3" stroke-linecap="round"/>
<path d="M212.625 247.791L190.811 251.54" stroke="#6A3D72" stroke-width="6" stroke-linecap="round"/>
<ellipse rx="3.68312" ry="3.56713" transform="matrix(1.00271 0.000909338 -0.000974887 0.997101 211.742 176.658)" fill="black"/>
<path d="M230.188 176.654L221.792 176.666" stroke="#E78F0C" stroke-width="6" stroke-linecap="round"/>
<path d="M221.607 177.098L215.666 196.488" stroke="#E78F0C" stroke-width="6" stroke-linecap="round"/>
<path d="M214.825 196.489L209.77 185.379" stroke="#E78F0C" stroke-width="6" stroke-linecap="round"/>
<path d="M209.209 184.367L204.311 184.32L199.413 184.273" stroke="#E78F0C" stroke-width="6" stroke-linecap="round"/>
<ellipse rx="4.92414" ry="4.74239" transform="matrix(-0.999999 0.00140551 -0.0015153 -0.999999 195.742 184.96)" fill="#E78F0C"/>
<path d="M173.576 141.563H188.348" stroke="#6A3D72" stroke-width="6" stroke-linecap="round"/>
<path d="M188.675 140.803L199.178 106.704" stroke="#6A3D72" stroke-width="6" stroke-linecap="round"/>
<path d="M200.659 106.704L209.522 126.263" stroke="#6A3D72" stroke-width="6" stroke-linecap="round"/>
<path d="M210.507 128.044L219.124 128.14L227.74 128.235" stroke="#6A3D72" stroke-width="6" stroke-linecap="round"/>
<path d="M238.32 128.045C238.32 131.025 235.806 133.473 232.665 133.473C229.524 133.473 227.01 131.025 227.01 128.045C227.01 125.065 229.524 122.617 232.665 122.617C235.806 122.617 238.32 125.065 238.32 128.045Z" fill="#6A3D72" stroke="#6A3D72"/>
<path d="M264.672 155.18C251.131 197.995 230.819 263.202 187.117 288.896C122.488 281.446 115.102 187.191 107.1 155.18C107.1 123.761 115.102 263.795 187.117 284.543C221.111 284.543 273.905 112.039 264.672 155.18Z" fill="#E78F0C"/>
<g clip-path="url(#clip0_226_2)">
<rect width="65" height="52" transform="matrix(1.01324 0.015649 0.000937586 0.986445 90.379 224.676)" fill="black"/>
<path d="M149.773 245.021L120.455 260.331C118.513 261.345 116.085 260.651 115.032 258.78C113.979 256.91 114.699 254.571 116.641 253.557L140.208 241.25C141.331 240.663 141.92 239.162 141.181 237.832C140.521 236.643 138.753 236.154 137.536 236.79L102.373 255.153C100.93 255.906 99.1557 255.734 97.8973 254.72C96.6428 253.707 96.1544 252.061 96.6642 250.564L96.666 250.559L96.672 250.541C96.6814 250.512 96.6976 250.46 96.7201 250.386C96.7649 250.237 96.8328 250.001 96.9103 249.691C97.0669 249.069 97.2595 248.167 97.393 247.093C97.6663 244.895 97.659 242.225 96.8093 239.784C95.8848 237.127 94.3192 234.966 92.6377 233.865C91.6024 233.186 90.45 232.834 89.0286 233.147L87.3996 243.69C87.3724 243.868 87.332 244.044 87.2788 244.217L82.6217 259.362C80.621 265.868 77.542 272.02 73.5036 277.581C71.594 280.21 71.3915 283.653 72.9798 286.474L79.916 298.793C81.37 301.376 83.9126 302.953 86.6303 303.035C94.41 303.273 106.402 302.725 114.592 298.448L150.945 279.463C152.203 278.806 152.742 277.268 152.015 275.975C151.28 274.671 149.654 274.269 148.392 274.929L131.982 283.498C130.04 284.512 127.612 283.818 126.558 281.947C125.505 280.077 126.226 277.738 128.168 276.723L152.782 263.869C154.087 263.188 154.6 261.667 153.884 260.395C153.155 259.1 151.555 258.69 150.25 259.371L126.807 271.614C124.865 272.628 122.437 271.933 121.384 270.063C120.331 268.192 121.051 265.853 122.993 264.839L152.311 249.529C153.589 248.861 154.114 247.348 153.386 246.053C152.649 244.741 151.071 244.343 149.773 245.021ZM148.237 234.202C148.769 235.159 149.126 236.146 149.325 237.136L148.237 234.202ZM149.325 237.136C153.549 236.465 158.085 238.228 160.422 242.386C162.747 246.523 161.799 251.146 158.927 254.185C159.691 254.897 160.366 255.743 160.917 256.723C163.736 261.729 161.728 267.383 157.446 270.149C158.052 270.777 158.593 271.495 159.048 272.303C162.021 277.584 159.639 283.689 154.759 286.238L118.407 305.222C108.183 310.561 94.2749 310.978 86.3786 310.737C80.4952 310.558 75.5318 307.17 72.8832 302.466L65.947 290.146C62.9137 284.759 63.3013 278.184 66.948 273.163C70.4925 268.283 73.1947 262.883 74.951 257.172L79.528 242.287L81.4504 229.84C81.6357 228.642 82.3949 227.598 83.5002 227.021C88.4776 224.421 93.3236 224.996 97.1356 227.493C100.689 229.82 103.103 233.624 104.395 237.336C105.288 239.902 105.565 242.469 105.553 244.726L133.722 230.015C138.693 227.419 145.408 229.103 148.237 234.202" fill="#C4C4C4"/>
</g>
<path d="M314.449 273.137H304.312V308H286.734V222.688H304.312V256.848H312.34L333.199 222.688H354.645L328.336 263.059L357.398 308H336.422L314.449 273.137ZM415.523 271.027H381.773V293.879H421.383V308H364.195V222.688H421.266V236.926H381.773V257.258H415.523V271.027ZM501.07 222.688V308H483.434V236.926H460.699L459.293 267.043C458.707 277.199 457.418 285.207 455.426 291.066C453.434 296.887 450.523 301.164 446.695 303.898C442.867 306.594 437.633 307.961 430.992 308H426.422V293.879L429.352 293.586C433.766 293 436.91 290.461 438.785 285.969C440.699 281.438 441.91 273.391 442.418 261.828L443.883 222.688H501.07ZM567.75 271.027H534V293.879H573.609V308H516.422V222.688H573.492V236.926H534V257.258H567.75V271.027ZM652.008 222.688V308H634.371V275.656C629.02 276.789 623.434 277.355 617.613 277.355C606.793 277.355 598.57 274.992 592.945 270.266C587.359 265.539 584.488 258.703 584.332 249.758V222.688H601.969V249.406C602.008 254.289 603.18 257.805 605.484 259.953C607.828 262.102 611.871 263.176 617.613 263.176C623.434 263.176 629.02 262.609 634.371 261.477V222.688H652.008ZM718.688 271.027H684.938V293.879H724.547V308H667.359V222.688H724.43V236.926H684.938V257.258H718.688V271.027ZM762.691 273.137H752.555V308H734.977V222.688H752.555V256.848H760.582L781.441 222.688H802.887L776.578 263.059L805.641 308H784.664L762.691 273.137Z" fill="black"/>
<defs>
<clipPath id="clip0_226_2">
<rect width="124.422" height="126.94" fill="white" transform="matrix(0.490485 0.87117 -0.886616 0.463013 138.009 181.022)"/>
</clipPath>
</defs>
</svg>
